<?xml version="1.0" encoding="UTF-8"?>
<!-- Generated by Pixelmator Pro 3.7.1 -->
<svg width="694" height="874" viewBox="0 0 694 874" xmlns="http://www.w3.org/2000/svg">
    <path id="Layer2" fill="#657dbd" fill-rule="evenodd" stroke="none" d="M 3557.390137 874.02002 C 3434.310059 873.97998 3291.919922 836.900024 3276.310059 733.51001 L 3208.589844 315.909912 C 3200.919922 248.099976 3289.919922 244.280029 3333.060059 243.599976 C 3385.790039 242.77002 3546.509766 243.859985 3561.959961 243.959961 C 3605.799805 243.679932 3731.290039 242.969971 3776.689941 243.689941 C 3819.839844 244.369995 3908.830078 248.189941 3901.160156 316 L 3833.439941 733.599976 C 3817.830078 836.98999 3690.160156 874.060059 3557.390137 874.02002 Z"/>
    <g id="Redo">
        <path id="Layer21" fill="#657dbd" fill-rule="evenodd" stroke="none" d="M -3232.449951 262.060059 C -3339.820068 262.030029 -3464.040039 229.679932 -3477.669922 139.47998 L -3536.75 -224.839966 C -3543.439941 -284 -3465.800049 -287.330078 -3428.159912 -287.919922 C -3382.159912 -288.649902 -3241.949951 -287.699951 -3228.469971 -287.600098 C -3190.219971 -287.840088 -3080.75 -288.459961 -3041.130127 -287.840088 C -3003.48999 -287.25 -2925.850098 -283.919922 -2932.540039 -224.76001 L -2991.620117 139.560059 C -3005.23999 229.76001 -3116.620117 262.099976 -3232.449951 262.060059 Z"/>
        <path id="path1" fill="#c16c67" fill-rule="evenodd" stroke="none" d="M -3170.939941 53.189941 C -3205.939941 -48.320068 -3234.870117 -131.109985 -3234.870117 -131.109985 C -3241.560059 -190.27002 -3465.810059 -287.330078 -3428.169922 -287.919922 C -3382.169922 -288.649902 -3241.959961 -287.699951 -3228.47998 -287.600098 C -3190.22998 -287.840088 -3080.76001 -288.459961 -3041.140137 -287.840088 C -3003.5 -287.25 -2925.860107 -283.919922 -2932.550049 -224.76001 L -2991.670166 140.530029 C -2991.670166 140.530029 -3144.909912 128.660034 -3170.939941 53.199951 Z"/>
        <g id="Circle">
            <path id="Path" fill="#eae710" fill-opacity="0.85" fill-rule="evenodd" stroke="none" d="M -3448.22998 -286.830078 C -3448.209961 -404.580078 -3352.610107 -500.169922 -3234.860107 -500.169922 C -3117.110107 -500.169922 -3021.5 -404.570068 -3021.48999 -286.810059 L -3021.48999 -286.810059 C -3021.48999 -230.670044 -3043.209961 -179.569946 -3078.699951 -141.459961 C -3111.540039 -106.199951 -3156.169922 -82.050049 -3206.280029 -75.329956 C -3213.629883 -74.339966 -3221.090088 -73.72998 -3228.649902 -73.52002 C -3230.709961 -73.459961 -3232.780029 -73.429932 -3234.860107 -73.429932 C -3294.330078 -73.429932 -3348.139893 -97.810059 -3386.850098 -137.109985 C -3424.790039 -175.630005 -3448.209961 -228.47998 -3448.219971 -286.76001 L -3446.52002 -286.76001 C -3447.100098 -286.800049 -3447.659912 -286.820068 -3448.219971 -286.830078 Z"/>
            <path id="path2" fill="#f7bc16" fill-rule="evenodd" stroke="none" d="M -3448.22998 -286.830078 C -3448.209961 -404.580078 -3352.610107 -500.169922 -3234.860107 -500.169922 C -3117.110107 -500.169922 -3021.5 -404.570068 -3021.48999 -286.810059 L -3021.48999 -286.810059 C -3021.48999 -230.670044 -3043.209961 -179.569946 -3078.699951 -141.459961 C -3111.540039 -106.199951 -3156.169922 -82.050049 -3206.280029 -75.329956 C -3213.629883 -74.339966 -3221.090088 -73.72998 -3228.649902 -73.52002 C -3230.709961 -73.459961 -3232.780029 -73.429932 -3234.860107 -73.429932 C -3294.330078 -73.429932 -3348.139893 -97.810059 -3386.850098 -137.109985 C -3424.790039 -175.630005 -3448.209961 -228.47998 -3448.219971 -286.76001 L -3446.52002 -286.76001 C -3447.100098 -286.800049 -3447.659912 -286.820068 -3448.219971 -286.830078 Z"/>
        </g>
        <g id="Group" opacity="0.8">
            <path id="path3" fill="#ed1f24" fill-opacity="0.8" fill-rule="evenodd" stroke="none" d="M -2991.669922 140.449951 L -3271.629883 -130.859985 C -3157.709961 -126.76001 -2946.959961 -134.47998 -2932.129883 -227.420044 C -2932.129883 -227.420044 -2990.180176 136.429932 -2991.660156 140.449951 Z"/>
            <path id="path4" fill="#a91e22" fill-opacity="0.79" fill-rule="evenodd" stroke="none" d="M -2991.669922 140.449951 L -3271.629883 -130.859985 C -3157.709961 -126.76001 -2946.959961 -134.47998 -2932.129883 -227.420044 C -2932.129883 -227.420044 -2990.180176 136.429932 -2991.660156 140.449951 Z"/>
            <path id="path5" fill="none" stroke="none" d="M -2991.669922 140.449951 L -3271.629883 -130.859985 C -3157.709961 -126.76001 -2946.959961 -134.47998 -2932.129883 -227.420044 C -2932.129883 -227.420044 -2990.180176 136.429932 -2991.660156 140.449951 Z"/>
        </g>
        <g id="Layer1">
            <path id="path6" fill="#435ca9" fill-opacity="0.76" fill-rule="evenodd" stroke="none" d="M -3478.060059 140.530029 L -3535.600098 -216.079956 C -3525.25 -159.109985 -3422.810059 -134.619995 -3271.639893 -130.859985 L -3213.48999 -74.51001 C -3230.030029 -38.089966 -3478.060059 140.52002 -3478.060059 140.52002 Z"/>
        </g>
        <path id="green-bin" fill="#6ebe45" fill-opacity="0.5" fill-rule="evenodd" stroke="none" d="M -3478.060059 140.530029 L -3295.169922 -42.359985 C -3295.169922 -42.359985 -3278.070068 -58.719971 -3257.399902 -67.070068 C -3234.77002 -76.209961 -3219.149902 -73.839966 -3213.47998 -74.540039 L -2991.670166 140.369995 C -3009.709961 251.699951 -3177.090088 262.48999 -3234.649902 262.050049 C -3297.639893 261.570068 -3461.899902 245.340088 -3478.060059 140.52002 Z"/>
        <path id="green-bin1" fill="#0c8040" fill-rule="evenodd" stroke="none" d="M -3478.060059 140.530029 L -3295.169922 -42.359985 C -3295.169922 -42.359985 -3278.070068 -58.719971 -3257.399902 -67.070068 C -3234.77002 -76.209961 -3219.149902 -73.839966 -3213.47998 -74.540039 L -2991.670166 140.369995 C -3009.709961 251.699951 -3177.090088 262.48999 -3234.649902 262.050049 C -3297.639893 261.570068 -3461.899902 245.340088 -3478.060059 140.52002 Z"/>
    </g>
    <g id="g1">
        <path id="path7" fill="#003949" stroke="none" d="M -562.73999 1330.349976 L -562.73999 1000.650024 L -421.909973 1000.650024 C -398.98999 1000.650024 -379.599976 1004.180054 -363.73999 1011.25 C -347.890015 1018.310059 -335.880005 1028.209961 -327.710022 1040.920044 C -319.549988 1053.640015 -315.460022 1068.640015 -315.460022 1085.900024 C -315.460022 1103.160034 -318.98999 1116.52002 -326.059998 1127.819946 C -333.119995 1139.119995 -342.630005 1147.76001 -354.559998 1153.72998 C -366.5 1159.699951 -379.52002 1163.310059 -393.650024 1164.560059 L -386.109985 1158.910034 C -370.72998 1159.540039 -357.219971 1163.619995 -345.599976 1171.160034 C -333.98999 1178.699951 -324.799988 1188.51001 -318.049988 1200.599976 C -311.299988 1212.689941 -307.919983 1225.959961 -307.919983 1240.400024 C -307.919983 1258.300049 -312.159973 1274 -320.640015 1287.5 C -329.119995 1301 -341.450012 1311.52002 -357.609985 1319.060059 C -373.789978 1326.599976 -393.48999 1330.359985 -416.719971 1330.359985 L -562.72998 1330.359985 Z M -492.090027 1136.290039 L -434.159973 1136.290039 C -419.090027 1136.290039 -407.549988 1132.839966 -399.539978 1125.930054 C -391.530029 1119.030029 -387.530029 1109.290039 -387.530029 1096.72998 C -387.530029 1084.170044 -391.530029 1074.359985 -399.539978 1067.290039 C -407.549988 1060.219971 -419.25 1056.689941 -434.630005 1056.689941 L -492.090027 1056.689941 L -492.090027 1136.290039 Z M -492.090027 1272.880005 L -428.5 1272.880005 C -413.119995 1272.880005 -401.109985 1269.349976 -392.469971 1262.280029 C -383.840027 1255.219971 -379.52002 1244.930054 -379.52002 1231.430054 C -379.52002 1217.930054 -383.98999 1207.410034 -392.940002 1199.869995 C -401.890015 1192.329956 -414.059998 1188.569946 -429.440002 1188.569946 L -492.080017 1188.569946 L -492.080017 1272.880005 Z"/>
        <path id="path8" fill="#003949" stroke="none" d="M -127.530029 1336 C -152.02002 1336 -174.400024 1331.050049 -194.650024 1321.160034 C -214.900024 1311.27002 -230.919983 1296.430054 -242.690002 1276.650024 C -254.460022 1256.869995 -260.349976 1231.900024 -260.349976 1201.76001 L -260.349976 1000.640015 L -189.700012 1000.640015 L -189.700012 1202.22998 C -189.700012 1216.98999 -187.27002 1229.550049 -182.400024 1239.910034 C -177.539978 1250.27002 -170.320007 1258.040039 -160.72998 1263.22998 C -151.159973 1268.410034 -139.619995 1271 -126.109985 1271 C -112.599976 1271 -100.599976 1268.410034 -91.02002 1263.22998 C -81.450012 1258.050049 -74.140015 1250.280029 -69.119995 1239.910034 C -64.099976 1229.550049 -61.580017 1216.98999 -61.580017 1202.22998 L -61.580017 1000.640015 L 9.069946 1000.640015 L 9.069946 1201.76001 C 9.069946 1231.900024 2.869995 1256.869995 -9.530029 1276.650024 C -21.940002 1296.430054 -38.419983 1311.27002 -58.98999 1321.160034 C -79.559998 1331.050049 -102.400024 1336 -127.52002 1336 Z"/>
        <path id="path9" fill="#003949" stroke="none" d="M 218.650024 1336 C 185.680054 1336 157.180054 1328.859985 133.160034 1314.569946 C 109.140015 1300.280029 90.689941 1280.349976 77.819946 1254.75 C 64.939941 1229.160034 58.51001 1199.719971 58.51001 1166.439941 C 58.51001 1133.160034 64.939941 1102.780029 77.819946 1077.180054 C 90.689941 1051.589966 109.140015 1031.48999 133.160034 1016.890015 C 157.180054 1002.290039 185.680054 994.98999 218.650024 994.98999 C 259.160034 994.98999 292.439941 1005.199951 318.5 1025.609985 C 344.560059 1046.030029 360.569946 1074.76001 366.540039 1111.800049 L 289.290039 1111.800049 C 285.52002 1095.160034 277.51001 1082.209961 265.27002 1072.939941 C 253.02002 1063.680054 237.160034 1059.050049 217.699951 1059.050049 C 198.23999 1059.050049 183.390015 1063.449951 170.359985 1072.23999 C 157.329956 1081.030029 147.439941 1093.359985 140.689941 1109.209961 C 133.930054 1125.069946 130.560059 1144.150024 130.560059 1166.439941 C 130.560059 1188.72998 133.930054 1206.869995 140.689941 1222.72998 C 147.439941 1238.589966 157.329956 1250.839966 170.359985 1259.469971 C 183.390015 1268.109985 199.170044 1272.420044 217.699951 1272.420044 C 237.170044 1272.420044 253.030029 1268.26001 265.27002 1259.939941 C 277.52002 1251.619995 285.52002 1239.609985 289.290039 1223.910034 L 366.540039 1223.910034 C 360.569946 1258.76001 344.560059 1286.160034 318.5 1306.099976 C 292.430054 1326.040039 259.150024 1336.01001 218.650024 1336.01001 Z"/>
        <path id="path10" fill="#003949" stroke="none" d="M 419.300049 1330.349976 L 419.300049 1000.650024 L 489.949951 1000.650024 L 489.949951 1125.469971 L 603.930054 1000.650024 L 690.599976 1000.650024 L 569.550049 1131.119995 L 694.839966 1330.359985 L 608.650024 1330.359985 L 519.160034 1185.76001 L 489.959961 1217.319946 L 489.959961 1330.359985 L 419.310059 1330.359985 Z"/>
        <path id="path11" fill="#003949" stroke="none" d="M 736.75 1330.349976 L 736.75 1000.650024 L 957.650024 1000.650024 L 957.650024 1057.640015 L 807.400024 1057.640015 L 807.400024 1135.359985 L 943.52002 1135.359985 L 943.52002 1190 L 807.400024 1190 L 807.400024 1273.369995 L 957.650024 1273.369995 L 957.650024 1330.359985 L 736.75 1330.359985 Z"/>
        <path id="path12" fill="#003949" stroke="none" d="M 1090 1330.349976 L 1090 1057.640015 L 994.390015 1057.640015 L 994.390015 1000.650024 L 1256.73999 1000.650024 L 1256.73999 1057.640015 L 1161.129883 1057.640015 L 1161.129883 1330.349976 L 1090.01001 1330.349976 Z"/>
    </g>
    <path id="path13" fill="#bbd7c5" fill-rule="evenodd" stroke="none" d="M 3901.879883 312.949951 C 3884.879883 419.47998 3643.319824 428.330078 3512.72998 423.630005 L 3512.72998 423.630005 C 3339.450195 419.320068 3222.029785 391.25 3210.169922 325.949951 L 3276.120117 734.719971 C 3294.649902 854.869995 3482.930176 873.469971 3555.129883 874.02002 C 3621.100098 874.52002 3812.890137 862.160034 3833.629883 734.609985 L 3833.640137 734.609985 C 3835.339844 730.01001 3901.879883 312.949951 3901.879883 312.949951 Z"/>
    <path id="path14" fill="#009153" stroke="none" d="M 371.329956 489.540039 L 371.359985 489.540039 L 370.099976 488.359985 C 362.930054 489.030029 355.699951 489.409912 348.369995 489.449951 L 346.660034 489.449951 C 327.089966 489.449951 303.030029 500.530029 283.160034 520.130005 L 67.650024 732.659912 C 67.76001 733.300049 67.859985 733.919922 67.959961 734.530029 C 81.640015 817.219971 184.099976 873.76001 345.890015 874.030029 L 348.119995 874.030029 C 509.910034 873.76001 612.359985 817.209961 626.040039 734.530029 C 626.060059 734.400024 626.079956 734.26001 626.109985 734.130005 L 371.329956 489.540039 Z"/>
    <path id="path15" fill="#ef463b" fill-opacity="0.79" stroke="none" d="M 523.569946 414.099976 C 448.810059 424.699951 372.300049 423.599976 347 423.599976 C 337.930054 423.599976 322.27002 423.73999 302.47998 423.429932 L 370.099976 488.349976 C 430.23999 482.719971 484.060059 455.330078 523.579956 414.099976 Z"/>
    <path id="path16" fill="#81347a" fill-opacity="0.79" stroke="none" d="M 170.430054 414.099976 C 214.72998 460.320068 277 489.169922 346.01001 489.439941 C 346.22998 489.439941 346.449951 489.429932 346.670044 489.429932 L 348.380005 489.429932 C 355.709961 489.400024 362.949951 489.02002 370.109985 488.340088 L 302.48999 423.419922 C 267.069946 422.869995 218.390015 420.890015 170.439941 414.090088 Z"/>
    <path id="path17" fill="#d93d3a" stroke="none" d="M 668.199951 363.630005 C 636.75 391.090088 580.680054 406.01001 523.579956 414.109985 C 484.069946 455.330078 430.23999 482.719971 370.099976 488.359985 L 371.359985 489.540039 L 371.329956 489.540039 L 626.109985 734.130005 C 626.089966 734.26001 626.060059 734.400024 626.040039 734.530029 C 632.699951 694.320068 652.589966 587.669922 669.150024 489.540039 C 677.449951 440.340088 684.910034 393.290039 689.430054 357.820068 C 691.410034 342.290039 692.839966 328.969971 693.52002 318.679932 C 691.439941 336.52002 682.280029 351.330078 668.199951 363.630005 Z"/>
    <path id="path18" fill="#b4302e" stroke="none" d="M 591.560059 244.040039 C 591.560059 244.320068 591.569946 244.599976 591.569946 244.890015 C 591.569946 310.550049 565.689941 370.169922 523.569946 414.099976 C 606.25 402.380005 686.780029 376.340088 693.52002 318.669922 C 693.819946 314.150024 693.97998 310.209961 693.97998 306.919922 C 693.97998 255.800049 625.680054 245.929932 591.560059 244.040039 Z"/>
    <path id="path19" fill="#006095" stroke="none" d="M 170.430054 414.099976 C 87.75 402.380005 7.219971 376.340088 0.47998 318.669922 C 5.780029 398.619995 55.619995 660.650024 67.650024 732.640015 L 283.160034 520.109985 C 302.810059 500.72998 326.550049 489.679932 346.01001 489.439941 C 277 489.159912 214.72998 460.310059 170.430054 414.099976 Z"/>
    <path id="path20" fill="#004a76" stroke="none" d="M 102.439941 244.040039 C 68.319946 245.929932 0.02002 255.800049 0.02002 306.919922 C 0.02002 310.209961 0.179993 314.150024 0.47998 318.669922 C 7.219971 376.340088 87.75 402.369995 170.430054 414.099976 C 128.319946 370.169922 102.430054 310.550049 102.430054 244.890015 C 102.430054 244.609985 102.430054 244.330078 102.439941 244.040039 Z"/>
    <path id="path21" fill="#f7bc16" stroke="none" d="M 347 423.599976 C 372.300049 423.599976 448.819946 424.699951 523.569946 414.099976 C 565.680054 370.169922 591.569946 310.550049 591.569946 244.890015 C 591.569946 109.820068 482.069946 0.320068 347 0.320068 C 211.930054 0.320068 102.430054 109.820068 102.430054 244.890015 C 102.430054 310.550049 128.310059 370.169922 170.430054 414.099976 C 245.189941 424.699951 321.699951 423.599976 347 423.599976 Z"/>
</svg>
