<?xml version="1.0" encoding="UTF-8"?>
<svg id="Layer_1" xmlns="http://www.w3.org/2000/svg" viewBox="0 -50 226 226">
  <defs>
    <style>
      .cls-1 {
        fill: #333;
      }

      .cls-2 {
        fill: #f2a4a5;
      }

      .cls-3 {
        fill: #fee78d;
      }

      .cls-4 {
        fill: #fdc695;
      }

      .cls-5 {
        fill: #9abce3;
      }

      .cls-6 {
        fill: #dfefe0;
      }
    </style>
  </defs>
  <path class="cls-1" d="M129.2,104.62l-15.92-94.53c-.56-3.18-3.32-5.33-6.35-5.33-.73,0-1.47.13-2.21.39l-20.21,7.35C78.37,4.46,70.38.14,63.17,1.12c-5.76.78-10.13,4.86-12.3,11.51l-.04.13c-1.04,4.21-1.38,8.36-1.15,12.42L5.85,41.14c-2.94,1.07-4.69,4.1-4.14,7.18l9.57,58.54c.54,3.08,3.22,5.33,6.35,5.33h105.23c4.01,0,7.04-3.62,6.35-7.57ZM54.57,13.76c1.71-5.19,4.86-8.24,9.12-8.81,5.46-.74,11.87,2.71,17,8.95l-27.22,9.91c-.07-3.3.26-6.65,1.1-10.05ZM124.83,107.4c-.29.34-.93.92-1.98.92H20.89c-1.27,0-2.35-.9-2.58-2.15l-9.76-59.59c-.22-1.26.49-2.48,1.68-2.92l39.86-14.51c3.17,21.68,21.66,40.57,33.66,52.82,1.09,1.11,2.13,2.17,3.1,3.18-.75,1.19-1.2,2.6-1.2,4.12,0,4.27,3.47,7.74,7.74,7.74s7.74-3.47,7.74-7.74-3.47-7.74-7.74-7.74c-1.36,0-2.63.35-3.74.97-.99-1.03-2.05-2.1-3.15-3.23-12.51-12.77-30.24-30.89-32.75-51.45l52.29-19.03c.29-.11.59-.16.89-.16,1.07,0,2.29.73,2.54,2.13l15.91,94.51h0s0,.03,0,.03c.18,1.03-.28,1.76-.56,2.11ZM89.52,89.27c0-2.14,1.74-3.88,3.88-3.88s3.88,1.74,3.88,3.88-1.74,3.88-3.88,3.88-3.88-1.74-3.88-3.88Z"/>
  <g>
    <path class="cls-6" d="M195.51,109.89c-15.24,0-27.64-12.4-27.64-27.64s12.4-27.64,27.64-27.64,27.64,12.4,27.64,27.64-12.4,27.64-27.64,27.64Z"/>
    <path class="cls-1" d="M195.51,54.98c15.04,0,27.27,12.23,27.27,27.27s-12.23,27.27-27.27,27.27-27.27-12.23-27.27-27.27,12.23-27.27,27.27-27.27M195.51,51.98c-16.72,0-30.27,13.55-30.27,30.27s13.55,30.27,30.27,30.27,30.27-13.55,30.27-30.27-13.55-30.27-30.27-30.27h0Z"/>
  </g>
  <g>
    <circle class="cls-2" cx="153.39" cy="91.2" r="6.67"/>
    <path class="cls-1" d="M153.39,85.99c2.88,0,5.22,2.34,5.22,5.22s-2.34,5.22-5.22,5.22-5.22-2.34-5.22-5.22,2.34-5.22,5.22-5.22M153.39,83.09c-4.48,0-8.12,3.63-8.12,8.12s3.63,8.12,8.12,8.12,8.12-3.63,8.12-8.12-3.63-8.12-8.12-8.12h0Z"/>
  </g>
  <g>
    <path class="cls-3" d="M136.88,81.64c-5.14,0-9.31-4.18-9.31-9.31s4.18-9.31,9.31-9.31,9.31,4.18,9.31,9.31-4.18,9.31-9.31,9.31Z"/>
    <path class="cls-1" d="M136.88,64.46c4.34,0,7.86,3.53,7.86,7.86s-3.53,7.86-7.86,7.86-7.86-3.53-7.86-7.86,3.53-7.86,7.86-7.86M136.88,61.56c-5.94,0-10.76,4.82-10.76,10.76s4.82,10.76,10.76,10.76,10.76-4.82,10.76-10.76-4.82-10.76-10.76-10.76h0Z"/>
  </g>
  <g>
    <path class="cls-4" d="M158.03,64.95c-6.83,0-12.39-5.56-12.39-12.39s5.56-12.39,12.39-12.39,12.39,5.56,12.39,12.39-5.56,12.39-12.39,12.39Z"/>
    <path class="cls-1" d="M158.03,41.63c6.03,0,10.94,4.91,10.94,10.94s-4.91,10.94-10.94,10.94-10.94-4.91-10.94-10.94,4.91-10.94,10.94-10.94M158.03,38.73c-7.64,0-13.84,6.2-13.84,13.84s6.2,13.84,13.84,13.84,13.84-6.2,13.84-13.84-6.2-13.84-13.84-13.84h0Z"/>
  </g>
  <g>
    <path class="cls-5" d="M132.64,41.32c-6,0-10.88-4.88-10.88-10.88s4.88-10.88,10.88-10.88,10.88,4.88,10.88,10.88-4.88,10.88-10.88,10.88Z"/>
    <path class="cls-1" d="M132.64,21c5.2,0,9.43,4.23,9.43,9.43s-4.23,9.43-9.43,9.43-9.43-4.23-9.43-9.43,4.23-9.43,9.43-9.43M132.64,18.1c-6.81,0-12.33,5.52-12.33,12.33s5.52,12.33,12.33,12.33,12.33-5.52,12.33-12.33-5.52-12.33-12.33-12.33h0Z"/>
  </g>
</svg>
